<svg width="247" height="72" viewBox="0 0 247 72" fill="none" xmlns="http://www.w3.org/2000/svg">
<path d="M70.7917 45.2519L61.9027 60.5315C60.1605 63.5662 56.9249 65.1542 53.6537 64.9425H46.5426V72L37.6536 56.1205L46.5426 40.2411V47.2986H56.5693L48.6759 33.7129L64.0716 23.2546L70.4716 35.9007C72.3205 38.6179 72.5694 42.2525 70.7917 45.2519ZM25.9558 0H43.7337C47.2181 0 50.2404 2.0114 51.6982 4.90499L55.2538 11.045L61.4049 7.51628L52.0182 23.0781L33.7069 23.3957L39.8581 19.867L34.8447 11.2215L26.9869 24.8072L11.5556 15.9853L17.9557 4.97556C19.4135 2.04669 22.4357 0 25.9558 0ZM11.1645 60.5668L2.27557 45.2872C0.533337 42.2878 0.782229 38.6884 2.59558 35.9713L6.15116 29.8665L0 26.3377L18.2757 26.62L27.698 42.2172L21.5468 38.6884L16.5335 47.2986H32.3202V64.9425H19.5202C17.8544 65.0621 16.1882 64.7155 14.7111 63.9419C13.234 63.1684 12.0052 61.999 11.1645 60.5668Z" fill="#7EF016"/>
<path d="M44.1818 35.1818C44.1818 39.7005 40.5187 43.3636 36 43.3636C31.4813 43.3636 27.8182 39.7005 27.8182 35.1818C27.8182 30.6631 31.4813 27 36 27C40.5187 27 44.1818 30.6631 44.1818 35.1818Z" fill="#FFD50D"/>
<mask id="path-2-outside-1_17_44" maskUnits="userSpaceOnUse" x="88" y="17" width="159" height="38" fill="black">
<rect fill="white" x="88" y="17" width="159" height="38"/>
<path d="M115.605 29.6209C115.605 34.8626 112.604 38.6209 108.104 39.956L115.205 53.3077H107.904L101.452 40.5H95.6012V53.3077H89V18.7418H104.403C111.004 18.7418 115.605 23.044 115.605 29.6209ZM95.6012 24.6758V34.5659H103.753C106.903 34.5659 109.004 32.6374 109.004 29.6209C109.004 26.6044 106.903 24.6758 103.753 24.6758H95.6012Z"/>
<path d="M121.817 18.6923H144.821V24.6264H128.418V32.8846H143.421V38.8187H128.418V47.3736H145.121V53.3077H121.817V18.6923Z"/>
<path d="M150.01 39.956V32.044C150.01 23.4396 155.661 18 164.513 18C173.364 18 178.415 22.7473 178.415 30.8571V31.2527H171.814V30.7582C171.814 26.6044 169.314 23.8352 164.513 23.8352C159.562 23.8352 156.611 27.3956 156.611 31.7473V40.2527C156.611 45 159.362 48.1648 164.513 48.1648C169.764 48.1648 171.814 45.6429 171.814 41.489V41.1429H163.312V35.4066H178.415V41.1429C178.415 49.4011 173.564 54 164.513 54C155.911 54 150.01 49.1538 150.01 39.956Z"/>
<path d="M184.813 18.6923H207.817V24.6264H191.414V32.8846H206.417V38.8187H191.414V47.3736H208.117V53.3077H184.813V18.6923Z"/>
<path d="M214.407 18.6923H226.109L234.11 47.1758H234.71V18.6923H241.312V53.3077H229.609L221.608 24.8242H221.008V53.3077H214.407V18.6923Z"/>
<path d="M120.293 29.6209C120.293 34.8626 117.293 38.6209 112.792 39.956L119.893 53.3077H112.592L106.141 40.5H100.29V53.3077H93.6884V18.7418H109.091C115.693 18.7418 120.293 23.044 120.293 29.6209ZM100.29 24.6758V34.5659H108.441C111.592 34.5659 113.692 32.6374 113.692 29.6209C113.692 26.6044 111.592 24.6758 108.441 24.6758H100.29Z"/>
<path d="M126.505 18.6923H149.509V24.6264H133.106V32.8846H148.109V38.8187H133.106V47.3736H149.81V53.3077H126.505V18.6923Z"/>
<path d="M154.698 39.956V32.044C154.698 23.4396 160.349 18 169.201 18C178.053 18 183.104 22.7473 183.104 30.8571V31.2527H176.502V30.7582C176.502 26.6044 174.002 23.8352 169.201 23.8352C164.25 23.8352 161.3 27.3956 161.3 31.7473V40.2527C161.3 45 164.05 48.1648 169.201 48.1648C174.452 48.1648 176.502 45.6429 176.502 41.489V41.1429H168.001V35.4066H183.104V41.1429C183.104 49.4011 178.253 54 169.201 54C160.599 54 154.698 49.1538 154.698 39.956Z"/>
<path d="M189.501 18.6923H212.506V24.6264H196.103V32.8846H211.106V38.8187H196.103V47.3736H212.806V53.3077H189.501V18.6923Z"/>
<path d="M219.095 18.6923H230.797L238.799 47.1758H239.399V18.6923H246V53.3077H234.298L226.296 24.8242H225.696V53.3077H219.095V18.6923Z"/>
</mask>
<path d="M115.605 29.6209C115.605 34.8626 112.604 38.6209 108.104 39.956L115.205 53.3077H107.904L101.452 40.5H95.6012V53.3077H89V18.7418H104.403C111.004 18.7418 115.605 23.044 115.605 29.6209ZM95.6012 24.6758V34.5659H103.753C106.903 34.5659 109.004 32.6374 109.004 29.6209C109.004 26.6044 106.903 24.6758 103.753 24.6758H95.6012Z" fill="black"/>
<path d="M121.817 18.6923H144.821V24.6264H128.418V32.8846H143.421V38.8187H128.418V47.3736H145.121V53.3077H121.817V18.6923Z" fill="black"/>
<path d="M150.01 39.956V32.044C150.01 23.4396 155.661 18 164.513 18C173.364 18 178.415 22.7473 178.415 30.8571V31.2527H171.814V30.7582C171.814 26.6044 169.314 23.8352 164.513 23.8352C159.562 23.8352 156.611 27.3956 156.611 31.7473V40.2527C156.611 45 159.362 48.1648 164.513 48.1648C169.764 48.1648 171.814 45.6429 171.814 41.489V41.1429H163.312V35.4066H178.415V41.1429C178.415 49.4011 173.564 54 164.513 54C155.911 54 150.01 49.1538 150.01 39.956Z" fill="black"/>
<path d="M184.813 18.6923H207.817V24.6264H191.414V32.8846H206.417V38.8187H191.414V47.3736H208.117V53.3077H184.813V18.6923Z" fill="black"/>
<path d="M214.407 18.6923H226.109L234.11 47.1758H234.71V18.6923H241.312V53.3077H229.609L221.608 24.8242H221.008V53.3077H214.407V18.6923Z" fill="black"/>
<path d="M120.293 29.6209C120.293 34.8626 117.293 38.6209 112.792 39.956L119.893 53.3077H112.592L106.141 40.5H100.29V53.3077H93.6884V18.7418H109.091C115.693 18.7418 120.293 23.044 120.293 29.6209ZM100.29 24.6758V34.5659H108.441C111.592 34.5659 113.692 32.6374 113.692 29.6209C113.692 26.6044 111.592 24.6758 108.441 24.6758H100.29Z" fill="#FFD50D"/>
<path d="M126.505 18.6923H149.509V24.6264H133.106V32.8846H148.109V38.8187H133.106V47.3736H149.81V53.3077H126.505V18.6923Z" fill="#FFD50D"/>
<path d="M154.698 39.956V32.044C154.698 23.4396 160.349 18 169.201 18C178.053 18 183.104 22.7473 183.104 30.8571V31.2527H176.502V30.7582C176.502 26.6044 174.002 23.8352 169.201 23.8352C164.25 23.8352 161.3 27.3956 161.3 31.7473V40.2527C161.3 45 164.05 48.1648 169.201 48.1648C174.452 48.1648 176.502 45.6429 176.502 41.489V41.1429H168.001V35.4066H183.104V41.1429C183.104 49.4011 178.253 54 169.201 54C160.599 54 154.698 49.1538 154.698 39.956Z" fill="#FFD50D"/>
<path d="M189.501 18.6923H212.506V24.6264H196.103V32.8846H211.106V38.8187H196.103V47.3736H212.806V53.3077H189.501V18.6923Z" fill="#FFD50D"/>
<path d="M219.095 18.6923H230.797L238.799 47.1758H239.399V18.6923H246V53.3077H234.298L226.296 24.8242H225.696V53.3077H219.095V18.6923Z" fill="#FFD50D"/>
<path d="M115.605 29.6209C115.605 34.8626 112.604 38.6209 108.104 39.956L115.205 53.3077H107.904L101.452 40.5H95.6012V53.3077H89V18.7418H104.403C111.004 18.7418 115.605 23.044 115.605 29.6209ZM95.6012 24.6758V34.5659H103.753C106.903 34.5659 109.004 32.6374 109.004 29.6209C109.004 26.6044 106.903 24.6758 103.753 24.6758H95.6012Z" stroke="black" stroke-width="2" mask="url(#path-2-outside-1_17_44)"/>
<path d="M121.817 18.6923H144.821V24.6264H128.418V32.8846H143.421V38.8187H128.418V47.3736H145.121V53.3077H121.817V18.6923Z" stroke="black" stroke-width="2" mask="url(#path-2-outside-1_17_44)"/>
<path d="M150.01 39.956V32.044C150.01 23.4396 155.661 18 164.513 18C173.364 18 178.415 22.7473 178.415 30.8571V31.2527H171.814V30.7582C171.814 26.6044 169.314 23.8352 164.513 23.8352C159.562 23.8352 156.611 27.3956 156.611 31.7473V40.2527C156.611 45 159.362 48.1648 164.513 48.1648C169.764 48.1648 171.814 45.6429 171.814 41.489V41.1429H163.312V35.4066H178.415V41.1429C178.415 49.4011 173.564 54 164.513 54C155.911 54 150.01 49.1538 150.01 39.956Z" stroke="black" stroke-width="2" mask="url(#path-2-outside-1_17_44)"/>
<path d="M184.813 18.6923H207.817V24.6264H191.414V32.8846H206.417V38.8187H191.414V47.3736H208.117V53.3077H184.813V18.6923Z" stroke="black" stroke-width="2" mask="url(#path-2-outside-1_17_44)"/>
<path d="M214.407 18.6923H226.109L234.11 47.1758H234.71V18.6923H241.312V53.3077H229.609L221.608 24.8242H221.008V53.3077H214.407V18.6923Z" stroke="black" stroke-width="2" mask="url(#path-2-outside-1_17_44)"/>
<path d="M120.293 29.6209C120.293 34.8626 117.293 38.6209 112.792 39.956L119.893 53.3077H112.592L106.141 40.5H100.29V53.3077H93.6884V18.7418H109.091C115.693 18.7418 120.293 23.044 120.293 29.6209ZM100.29 24.6758V34.5659H108.441C111.592 34.5659 113.692 32.6374 113.692 29.6209C113.692 26.6044 111.592 24.6758 108.441 24.6758H100.29Z" stroke="black" stroke-width="2" mask="url(#path-2-outside-1_17_44)"/>
<path d="M126.505 18.6923H149.509V24.6264H133.106V32.8846H148.109V38.8187H133.106V47.3736H149.81V53.3077H126.505V18.6923Z" stroke="black" stroke-width="2" mask="url(#path-2-outside-1_17_44)"/>
<path d="M154.698 39.956V32.044C154.698 23.4396 160.349 18 169.201 18C178.053 18 183.104 22.7473 183.104 30.8571V31.2527H176.502V30.7582C176.502 26.6044 174.002 23.8352 169.201 23.8352C164.25 23.8352 161.3 27.3956 161.3 31.7473V40.2527C161.3 45 164.05 48.1648 169.201 48.1648C174.452 48.1648 176.502 45.6429 176.502 41.489V41.1429H168.001V35.4066H183.104V41.1429C183.104 49.4011 178.253 54 169.201 54C160.599 54 154.698 49.1538 154.698 39.956Z" stroke="black" stroke-width="2" mask="url(#path-2-outside-1_17_44)"/>
<path d="M189.501 18.6923H212.506V24.6264H196.103V32.8846H211.106V38.8187H196.103V47.3736H212.806V53.3077H189.501V18.6923Z" stroke="black" stroke-width="2" mask="url(#path-2-outside-1_17_44)"/>
<path d="M219.095 18.6923H230.797L238.799 47.1758H239.399V18.6923H246V53.3077H234.298L226.296 24.8242H225.696V53.3077H219.095V18.6923Z" stroke="black" stroke-width="2" mask="url(#path-2-outside-1_17_44)"/>
</svg>
